<?xml version="1.0" standalone="no"?>
<!DOCTYPE svg PUBLIC "-//W3C//DTD SVG 20010904//EN"
 "http://www.w3.org/TR/2001/REC-SVG-20010904/DTD/svg10.dtd">
<svg version="1.0" xmlns="http://www.w3.org/2000/svg"
 width="512.000000pt" height="512.000000pt" viewBox="0 0 512.000000 512.000000"
 preserveAspectRatio="xMidYMid meet">
<metadata>
Created by potrace 1.11, written by Peter Selinger 2001-2013
</metadata>
<g transform="translate(0.000000,512.000000) scale(0.100000,-0.100000)"
fill="#000000" stroke="none">
<path d="M3440 4366 c-328 -69 -631 -334 -908 -794 -159 -265 -319 -615 -449
-982 -37 -106 -127 -391 -138 -440 -2 -8 -10 -44 -19 -80 -8 -36 -18 -83 -21
-105 -3 -22 -8 -46 -10 -52 -4 -13 -17 -166 -18 -213 -1 -14 3 -69 7 -122 14
-190 76 -341 181 -444 86 -84 147 -108 276 -109 90 0 99 2 173 38 121 60 224
174 309 343 45 88 117 315 142 444 2 12 6 29 9 38 3 9 8 35 11 57 60 400 28
716 -96 954 -22 41 -56 97 -77 124 -20 27 -36 54 -34 60 16 60 240 428 309
509 185 217 332 319 483 335 92 9 149 -15 235 -101 206 -206 345 -671 381
-1271 5 -76 4 -462 0 -535 -2 -25 -7 -97 -11 -160 -9 -144 -11 -170 -19 -245
-4 -33 -8 -79 -11 -101 -3 -37 -9 -81 -20 -164 -2 -14 -7 -52 -10 -85 -4 -33
-11 -78 -16 -100 -19 -87 -38 -80 216 -80 192 0 226 2 229 15 3 8 8 38 11 65
4 28 8 64 11 80 2 17 6 54 10 83 3 29 7 62 9 72 2 10 7 50 10 87 4 37 8 79 10
93 2 14 7 66 10 115 3 50 8 106 10 125 8 64 18 343 18 480 0 300 -35 674 -83
890 -6 25 -12 54 -14 65 -25 131 -101 362 -164 500 -151 331 -335 517 -587
595 -90 27 -263 35 -355 16z m-877 -2041 c1 -152 -8 -233 -44 -400 -39 -175
-87 -310 -142 -390 l-24 -35 -10 34 c-16 52 -15 241 1 331 8 44 24 116 35 161
20 78 114 379 131 419 4 11 14 36 21 55 l13 35 9 -45 c5 -25 9 -99 10 -165z"/>
<path d="M1808 3380 c-79 -14 -148 -39 -246 -88 -350 -175 -646 -565 -860
-1132 -24 -65 -102 -306 -108 -333 -2 -10 -6 -27 -9 -37 -3 -10 -7 -27 -9 -37
-2 -10 -12 -47 -21 -83 -9 -36 -19 -74 -21 -85 -2 -11 -6 -29 -8 -40 -28 -139
-35 -178 -41 -225 -3 -30 -8 -62 -10 -70 -9 -34 -14 -146 -7 -155 4 -7 87 -11
225 -10 187 0 217 2 218 15 0 8 2 29 4 45 2 17 7 50 10 75 8 62 54 293 72 360
8 30 16 62 18 70 24 108 137 442 157 465 4 5 8 15 8 22 0 24 126 268 184 356
209 317 438 472 659 447 26 -3 51 -3 57 0 5 3 51 99 103 212 l94 208 -31 5
c-17 3 -44 8 -61 11 -53 10 -328 13 -377 4z"/>
</g>
</svg>
